<?xml version="1.0" standalone="no"?><svg xmlns="http://www.w3.org/2000/svg" viewBox="0 0 1440 320"><path fill="#000b76" fill-opacity="1" d="M0,96L36.9,160L73.8,0L110.8,96L147.7,288L184.6,224L221.5,64L258.5,192L295.4,256L332.3,288L369.2,96L406.2,256L443.1,128L480,160L516.9,256L553.8,320L590.8,288L627.7,288L664.6,96L701.5,192L738.5,32L775.4,96L812.3,0L849.2,96L886.2,64L923.1,0L960,192L996.9,160L1033.8,96L1070.8,224L1107.7,64L1144.6,160L1181.5,96L1218.5,32L1255.4,96L1292.3,160L1329.2,160L1366.2,160L1403.1,256L1440,288L1440,320L1403.1,320L1366.2,320L1329.2,320L1292.3,320L1255.4,320L1218.5,320L1181.5,320L1144.6,320L1107.7,320L1070.8,320L1033.8,320L996.9,320L960,320L923.1,320L886.2,320L849.2,320L812.3,320L775.4,320L738.5,320L701.5,320L664.6,320L627.7,320L590.8,320L553.8,320L516.9,320L480,320L443.1,320L406.2,320L369.2,320L332.3,320L295.4,320L258.5,320L221.5,320L184.6,320L147.7,320L110.8,320L73.8,320L36.9,320L0,320Z"></path></svg>